<svg width="23" height="15" viewBox="0 0 23 15" fill="none" xmlns="http://www.w3.org/2000/svg">
<path d="M18.8221 9.5051C18.5073 9.17397 18.4653 8.67486 18.6563 8.25974C19.0026 7.50672 19.2 6.66469 19.2 5.76923C19.2 2.58462 16.736 0 13.7 0C10.664 0 8.20001 2.58462 8.20001 5.76923C8.20001 8.95385 10.664 11.5385 13.7 11.5385C14.5235 11.5385 15.2996 11.3458 16.0022 11.006C16.443 10.7929 16.9839 10.8408 17.3218 11.1952L20.2252 14.2408C20.6192 14.6541 21.2788 14.6541 21.6728 14.2408L21.8431 14.0622C22.211 13.6763 22.2114 13.0695 21.844 12.6831L18.8221 9.5051ZM13.7 9.23077C11.885 9.23077 10.4 7.67308 10.4 5.76923C10.4 3.86538 11.885 2.30769 13.7 2.30769C15.515 2.30769 17 3.86538 17 5.76923C17 7.67308 15.515 9.23077 13.7 9.23077Z" fill="white"/>
<path d="M0.5 7.92307C0.5 7.37078 0.947715 6.92307 1.5 6.92307H5C5.55228 6.92307 6 7.37078 6 7.92307V8.23076C6 8.78305 5.55228 9.23076 5 9.23076H1.5C0.947715 9.23076 0.5 8.78305 0.5 8.23076V7.92307ZM0.5 2.15384C0.5 1.60155 0.947715 1.15384 1.5 1.15384H5C5.55228 1.15384 6 1.60155 6 2.15384V2.46153C6 3.01382 5.55228 3.46153 5 3.46153H1.5C0.947715 3.46153 0.5 3.01382 0.5 2.46153V2.15384ZM0.5 13.6923C0.5 13.14 0.947715 12.6923 1.5 12.6923H10.5C11.0523 12.6923 11.5 13.14 11.5 13.6923V14C11.5 14.5523 11.0523 15 10.5 15H1.5C0.947715 15 0.5 14.5523 0.5 14V13.6923Z" fill="white" fill-opacity="0.4"/>
</svg>
